<svg width="13" height="12" viewBox="0 0 13 12" fill="none" xmlns="http://www.w3.org/2000/svg">
<path d="M11.9321 6L12.2522 6.38411L12.7132 6L12.2522 5.61589L11.9321 6ZM-2.17676e-07 6.47827L11.9061 6.47827L11.9061 5.47827L-2.21337e-07 5.47827L-2.17676e-07 6.47827ZM11.9061 6.47827L12 6.47827L12 5.47827L11.9061 5.47827L11.9061 6.47827ZM5.61204 1.38411L11.586 6.36238L12.2261 5.59416L6.25222 0.615889L5.61204 1.38411ZM11.586 6.36238L11.612 6.38411L12.2522 5.61589L12.2261 5.59416L11.586 6.36238ZM11.612 5.61589L5.61204 10.6159L6.25222 11.3841L12.2522 6.38411L11.612 5.61589Z" fill="black"/>
</svg>
