<svg width="15" height="13" viewBox="0 0 15 13" fill="none" xmlns="http://www.w3.org/2000/svg">
<path fill-rule="evenodd" clip-rule="evenodd" d="M15 13L7.5 0L0 13H15ZM6.93167 4.72729H8.08905C8.27673 4.92432 8.30801 5.12122 8.27673 5.31824L8.18289 5.90906L8.08905 7.09094C8.05777 7.48486 8.02649 7.87878 7.96392 8.27271C7.94308 8.40405 7.9257 8.53528 7.90833 8.6665C7.87357 8.9292 7.83881 9.19189 7.77624 9.45459H7.15063L6.96295 8.27271C6.94731 8.07568 6.92385 7.87878 6.90039 7.68188C6.87693 7.48486 6.85347 7.28784 6.83783 7.09094L6.74398 5.90906L6.7127 5.31824C6.7127 5.12122 6.74398 4.92432 6.93167 4.72729ZM7.18191 9.77466H7.80752C7.87008 9.87317 7.90136 9.97156 7.93264 10.0947V10.4148C7.93264 10.6118 7.90136 10.8334 7.80752 11.0303H7.18191C7.08807 10.8334 7.05679 10.6118 7.05679 10.4148C7.02551 10.2917 7.02551 10.1932 7.05679 10.0947C7.08807 9.97156 7.11935 9.87317 7.18191 9.77466Z" fill="#F9D200"/>
</svg>
