<svg width="52" height="35" viewBox="0 0 52 35" fill="none" xmlns="http://www.w3.org/2000/svg">
<path d="M48.1102 0H3.88984C1.74687 0 0 1.79487 0 3.99672V31.0033C0 33.2156 1.74687 35 3.88984 35H48.1C50.2531 35 51.9898 33.2051 51.9898 31.0033V3.99672C52 1.79487 50.2531 0 48.1102 0Z" fill="#F5F5F5"/>
<path d="M0.213272 2.69231H51.7867C51.2586 1.12701 49.8062 0 48.1101 0H3.88983C2.19374 0 0.741397 1.12701 0.213272 2.69231Z" fill="#FF4B55"/>
<path d="M52 10.7692H0V13.4615H52V10.7692Z" fill="#FF4B55"/>
<path d="M52 5.38464H0V8.07695H52V5.38464Z" fill="#FF4B55"/>
<path d="M0 17.9279C0 18.4392 0.40625 18.8462 0.89375 18.8462H52V16.1539H0V17.9279Z" fill="#FF4B55"/>
<path d="M52 26.9231H0V29.6154H52V26.9231Z" fill="#FF4B55"/>
<path d="M51.7867 32.3077H0.213272C0.741397 33.873 2.19374 35 3.88983 35H48.1C49.8062 35 51.2586 33.8834 51.7867 32.3077Z" fill="#FF4B55"/>
<path d="M52 21.5385H0V24.2308H52V21.5385Z" fill="#FF4B55"/>
<path d="M0.89375 18.8462H23.3086C23.8062 18.8462 24.2023 18.4287 24.2023 17.9278V0.918307C24.2023 0.406977 23.7961 0 23.3086 0H3.88984C1.74687 0 0 1.79487 0 3.99672V17.9278C0 18.4392 0.40625 18.8462 0.89375 18.8462Z" fill="#41479B"/>
<path d="M2.51875 2.11834L2.72188 2.73402H3.35156C3.43281 2.73402 3.46328 2.83837 3.40235 2.89055L2.89453 3.27666L3.0875 3.89234C3.10781 3.97582 3.02656 4.03843 2.95547 3.98626L2.44766 3.61058L1.93985 3.98626C1.86875 4.03843 1.7875 3.96539 1.80781 3.89234L2.00078 3.27666L1.49297 2.89055C1.43203 2.83837 1.4625 2.73402 1.54375 2.73402H2.17344L2.37656 2.11834C2.38672 2.03485 2.48828 2.03485 2.51875 2.11834Z" fill="#F5F5F5"/>
<path d="M2.51874 5.3115L2.72186 5.92718H3.35155C3.4328 5.92718 3.46327 6.03153 3.40233 6.08371L2.89452 6.46982L3.08749 7.0855C3.1078 7.16898 3.02655 7.23159 2.95546 7.17942L2.44764 6.80375L1.93983 7.17942C1.86874 7.23159 1.78749 7.15855 1.8078 7.0855L2.00077 6.46982L1.49296 6.08371C1.43202 6.03153 1.46249 5.92718 1.54374 5.92718H2.17342L2.37655 5.3115C2.38671 5.23845 2.48827 5.23845 2.51874 5.3115Z" fill="#F5F5F5"/>
<path d="M2.51874 8.51513L2.72186 9.13081H3.35155C3.4328 9.13081 3.46327 9.23516 3.40233 9.28734L2.89452 9.67344L3.08749 10.2891C3.1078 10.3726 3.02655 10.4352 2.95546 10.383L2.44764 10.0074L1.93983 10.383C1.86874 10.4352 1.78749 10.3622 1.8078 10.2891L2.00077 9.67344L1.49296 9.28734C1.43202 9.23516 1.46249 9.13081 1.54374 9.13081H2.17342L2.37655 8.51513C2.38671 8.43164 2.48827 8.43164 2.51874 8.51513Z" fill="#F5F5F5"/>
<path d="M2.51874 11.7083L2.72186 12.324H3.35155C3.4328 12.324 3.46327 12.4284 3.40233 12.4806L2.89452 12.8667L3.08749 13.4824C3.1078 13.5658 3.02655 13.6284 2.95546 13.5763L2.44764 13.2006L1.93983 13.5763C1.86874 13.6284 1.78749 13.5554 1.8078 13.4824L2.00077 12.8667L1.49296 12.4806C1.43202 12.4284 1.46249 12.324 1.54374 12.324H2.17342L2.37655 11.7083C2.38671 11.6353 2.48827 11.6353 2.51874 11.7083Z" fill="#F5F5F5"/>
<path d="M2.51874 14.912L2.72186 15.5277H3.35155C3.4328 15.5277 3.46327 15.632 3.40233 15.6842L2.89452 16.0703L3.08749 16.686C3.1078 16.7695 3.02655 16.8321 2.95546 16.7799L2.44764 16.4042L1.93983 16.7799C1.86874 16.8321 1.78749 16.759 1.8078 16.686L2.00077 16.0703L1.49296 15.6842C1.43202 15.632 1.46249 15.5277 1.54374 15.5277H2.17342L2.37655 14.912C2.38671 14.8285 2.48827 14.8285 2.51874 14.912Z" fill="#F5F5F5"/>
<path d="M4.93593 3.68358L5.13905 4.29927H5.76874C5.84999 4.29927 5.88046 4.40362 5.81952 4.4558L5.31171 4.8419L5.50468 5.45758C5.52499 5.54107 5.44374 5.60368 5.37265 5.5515L4.86483 5.17583L4.35702 5.5515C4.28593 5.60368 4.20468 5.53063 4.22499 5.45758L4.41796 4.8419L3.91015 4.4558C3.84921 4.40362 3.87968 4.29927 3.96093 4.29927H4.59061L4.79374 3.68358C4.8039 3.6001 4.90546 3.6001 4.93593 3.68358Z" fill="#F5F5F5"/>
<path d="M4.93593 6.87681L5.13905 7.49249H5.76874C5.84999 7.49249 5.88046 7.59684 5.81952 7.64902L5.31171 8.03513L5.50468 8.65081C5.52499 8.73429 5.44374 8.7969 5.37265 8.74473L4.86483 8.36905L4.35702 8.74473C4.28593 8.7969 4.20468 8.72386 4.22499 8.65081L4.41796 8.03513L3.91015 7.64902C3.84921 7.59684 3.87968 7.49249 3.96093 7.49249H4.59061L4.79374 6.87681C4.8039 6.80376 4.90546 6.80376 4.93593 6.87681Z" fill="#F5F5F5"/>
<path d="M4.93593 10.0804L5.13905 10.6961H5.76874C5.84999 10.6961 5.88046 10.8005 5.81952 10.8526L5.31171 11.2388L5.50468 11.8544C5.52499 11.9379 5.44374 12.0005 5.37265 11.9484L4.86483 11.5727L4.35702 11.9484C4.28593 12.0005 4.20468 11.9275 4.22499 11.8544L4.41796 11.2388L3.91015 10.8526C3.84921 10.8005 3.87968 10.6961 3.96093 10.6961H4.59061L4.79374 10.0804C4.8039 9.99695 4.90546 9.99695 4.93593 10.0804Z" fill="#F5F5F5"/>
<path d="M4.93593 13.284L5.13905 13.8997H5.76874C5.84999 13.8997 5.88046 14.0041 5.81952 14.0563L5.31171 14.4424L5.50468 15.058C5.52499 15.1415 5.44374 15.2041 5.37265 15.152L4.86483 14.7763L4.35702 15.152C4.28593 15.2041 4.20468 15.1311 4.22499 15.058L4.41796 14.4424L3.91015 14.0563C3.84921 14.0041 3.87968 13.8997 3.96093 13.8997H4.59061L4.79374 13.284C4.8039 13.2006 4.90546 13.2006 4.93593 13.284Z" fill="#F5F5F5"/>
<path d="M7.35312 2.11828L7.55624 2.73396H8.18593C8.26718 2.73396 8.29765 2.83831 8.23671 2.89049L7.7289 3.27659L7.92187 3.89228C7.94218 3.97576 7.86093 4.03837 7.78984 3.98619L7.28202 3.61052L6.77421 3.98619C6.70312 4.03837 6.62187 3.96532 6.64218 3.89228L6.83515 3.27659L6.32734 2.89049C6.2664 2.83831 6.29687 2.73396 6.37812 2.73396H7.00781L7.21093 2.11828C7.21093 2.03479 7.32265 2.03479 7.35312 2.11828Z" fill="#F5F5F5"/>
<path d="M7.35311 5.3115L7.55624 5.92718H8.18592C8.26717 5.92718 8.29764 6.03153 8.23671 6.08371L7.71874 6.46982L7.91171 7.0855C7.93202 7.16898 7.85077 7.23159 7.77967 7.17942L7.27186 6.80375L6.76405 7.17942C6.69296 7.23159 6.61171 7.15855 6.63202 7.0855L6.82499 6.46982L6.31717 6.08371C6.25624 6.03153 6.28671 5.92718 6.36796 5.92718H6.99764L7.20077 5.3115C7.21092 5.23845 7.32264 5.23845 7.35311 5.3115Z" fill="#F5F5F5"/>
<path d="M7.35312 8.51513L7.55624 9.13081H8.18593C8.26718 9.13081 8.29765 9.23516 8.23671 9.28734L7.7289 9.67344L7.92187 10.2891C7.94218 10.3726 7.86093 10.4352 7.78984 10.383L7.28202 10.0074L6.77421 10.383C6.70312 10.4352 6.62187 10.3622 6.64218 10.2891L6.83515 9.67344L6.32734 9.28734C6.2664 9.23516 6.29687 9.13081 6.37812 9.13081H7.00781L7.21093 8.51513C7.21093 8.43164 7.32265 8.43164 7.35312 8.51513Z" fill="#F5F5F5"/>
<path d="M7.35312 11.7083L7.55624 12.324H8.18593C8.26718 12.324 8.29765 12.4284 8.23671 12.4806L7.7289 12.8667L7.92187 13.4824C7.94218 13.5658 7.86093 13.6284 7.78984 13.5763L7.28202 13.2006L6.77421 13.5763C6.70312 13.6284 6.62187 13.5554 6.64218 13.4824L6.83515 12.8667L6.32734 12.4806C6.2664 12.4284 6.29687 12.324 6.37812 12.324H7.00781L7.21093 11.7083C7.21093 11.6353 7.32265 11.6353 7.35312 11.7083Z" fill="#F5F5F5"/>
<path d="M7.35312 14.912L7.55624 15.5277H8.18593C8.26718 15.5277 8.29765 15.632 8.23671 15.6842L7.7289 16.0703L7.92187 16.686C7.94218 16.7695 7.86093 16.8321 7.78984 16.7799L7.28202 16.4042L6.77421 16.7799C6.70312 16.8321 6.62187 16.759 6.64218 16.686L6.83515 16.0703L6.32734 15.6842C6.2664 15.632 6.29687 15.5277 6.37812 15.5277H7.00781L7.21093 14.912C7.21093 14.8285 7.32265 14.8285 7.35312 14.912Z" fill="#F5F5F5"/>
<path d="M9.77031 3.68358L9.97343 4.29927H10.6031C10.6844 4.29927 10.7148 4.40362 10.6539 4.4558L10.1461 4.8419L10.3391 5.45758C10.3594 5.54107 10.2781 5.60368 10.207 5.5515L9.69921 5.17583L9.1914 5.5515C9.12031 5.60368 9.03906 5.53063 9.05937 5.45758L9.25234 4.8419L8.74453 4.4558C8.68359 4.40362 8.71406 4.29927 8.79531 4.29927H9.425L9.62812 3.68358C9.62812 3.6001 9.73984 3.6001 9.77031 3.68358Z" fill="#F5F5F5"/>
<path d="M9.77031 6.87681L9.97343 7.49249H10.6031C10.6844 7.49249 10.7148 7.59684 10.6539 7.64902L10.1461 8.03513L10.3391 8.65081C10.3594 8.73429 10.2781 8.7969 10.207 8.74473L9.69921 8.36905L9.1914 8.74473C9.12031 8.7969 9.03906 8.72386 9.05937 8.65081L9.25234 8.03513L8.74453 7.64902C8.68359 7.59684 8.71406 7.49249 8.79531 7.49249H9.425L9.62812 6.87681C9.62812 6.80376 9.73984 6.80376 9.77031 6.87681Z" fill="#F5F5F5"/>
<path d="M9.77031 10.0804L9.97343 10.6961H10.6031C10.6844 10.6961 10.7148 10.8005 10.6539 10.8526L10.1461 11.2388L10.3391 11.8544C10.3594 11.9379 10.2781 12.0005 10.207 11.9484L9.69921 11.5727L9.1914 11.9484C9.12031 12.0005 9.03906 11.9275 9.05937 11.8544L9.25234 11.2388L8.74453 10.8526C8.68359 10.8005 8.71406 10.6961 8.79531 10.6961H9.425L9.62812 10.0804C9.62812 9.99695 9.73984 9.99695 9.77031 10.0804Z" fill="#F5F5F5"/>
<path d="M9.77031 13.284L9.97343 13.8997H10.6031C10.6844 13.8997 10.7148 14.0041 10.6539 14.0563L10.1461 14.4424L10.3391 15.058C10.3594 15.1415 10.2781 15.2041 10.207 15.152L9.69921 14.7763L9.1914 15.152C9.12031 15.2041 9.03906 15.1311 9.05937 15.058L9.25234 14.4424L8.74453 14.0563C8.68359 14.0041 8.71406 13.8997 8.79531 13.8997H9.425L9.62812 13.284C9.62812 13.2006 9.73984 13.2006 9.77031 13.284Z" fill="#F5F5F5"/>
<path d="M12.1875 2.11828L12.3906 2.73396H13.0203C13.1015 2.73396 13.132 2.83831 13.0711 2.89049L12.5633 3.27659L12.7562 3.89228C12.7765 3.97576 12.6953 4.03837 12.6242 3.98619L12.1164 3.61052L11.6086 3.98619C11.5375 4.03837 11.4562 3.96532 11.4765 3.89228L11.6695 3.27659L11.1617 2.89049C11.1008 2.83831 11.1312 2.73396 11.2125 2.73396H11.8422L12.0453 2.11828C12.0453 2.03479 12.157 2.03479 12.1875 2.11828Z" fill="#F5F5F5"/>
<path d="M12.1875 5.3115L12.3906 5.92718H13.0203C13.1015 5.92718 13.132 6.03153 13.0711 6.08371L12.5633 6.46982L12.7562 7.0855C12.7765 7.16898 12.6953 7.23159 12.6242 7.17942L12.1164 6.80375L11.6086 7.17942C11.5375 7.23159 11.4562 7.15855 11.4765 7.0855L11.6695 6.46982L11.1617 6.08371C11.1008 6.03153 11.1312 5.92718 11.2125 5.92718H11.8422L12.0453 5.3115C12.0453 5.23845 12.157 5.23845 12.1875 5.3115Z" fill="#F5F5F5"/>
<path d="M12.1875 8.51513L12.3906 9.13081H13.0203C13.1015 9.13081 13.132 9.23516 13.0711 9.28734L12.5633 9.67344L12.7562 10.2891C12.7765 10.3726 12.6953 10.4352 12.6242 10.383L12.1164 10.0074L11.6086 10.383C11.5375 10.4352 11.4562 10.3622 11.4765 10.2891L11.6695 9.67344L11.1617 9.28734C11.1008 9.23516 11.1312 9.13081 11.2125 9.13081H11.8422L12.0453 8.51513C12.0453 8.43164 12.157 8.43164 12.1875 8.51513Z" fill="#F5F5F5"/>
<path d="M12.1875 11.7083L12.3906 12.324H13.0203C13.1015 12.324 13.132 12.4284 13.0711 12.4806L12.5633 12.8667L12.7562 13.4824C12.7765 13.5658 12.6953 13.6284 12.6242 13.5763L12.1164 13.2006L11.6086 13.5763C11.5375 13.6284 11.4562 13.5554 11.4765 13.4824L11.6695 12.8667L11.1617 12.4806C11.1008 12.4284 11.1312 12.324 11.2125 12.324H11.8422L12.0453 11.7083C12.0453 11.6353 12.157 11.6353 12.1875 11.7083Z" fill="#F5F5F5"/>
<path d="M12.1875 14.912L12.3906 15.5277H13.0203C13.1015 15.5277 13.132 15.632 13.0711 15.6842L12.5633 16.0703L12.7562 16.686C12.7765 16.7695 12.6953 16.8321 12.6242 16.7799L12.1164 16.4042L11.6086 16.7799C11.5375 16.8321 11.4562 16.759 11.4765 16.686L11.6695 16.0703L11.1617 15.6842C11.1008 15.632 11.1312 15.5277 11.2125 15.5277H11.8422L12.0453 14.912C12.0453 14.8285 12.157 14.8285 12.1875 14.912Z" fill="#F5F5F5"/>
<path d="M14.6047 3.68358L14.8078 4.29927H15.4375C15.5187 4.29927 15.5492 4.40362 15.4883 4.4558L14.9805 4.8419L15.1734 5.45758C15.1937 5.54107 15.1125 5.60368 15.0414 5.5515L14.5336 5.17583L14.0258 5.5515C13.9547 5.60368 13.8734 5.53063 13.8937 5.45758L14.0867 4.8419L13.5789 4.4558C13.518 4.40362 13.5484 4.29927 13.6297 4.29927H14.2594L14.4625 3.68358C14.4625 3.6001 14.5742 3.6001 14.6047 3.68358Z" fill="#F5F5F5"/>
<path d="M14.6047 6.87681L14.8078 7.49249H15.4375C15.5187 7.49249 15.5492 7.59684 15.4883 7.64902L14.9805 8.03513L15.1734 8.65081C15.1937 8.73429 15.1125 8.7969 15.0414 8.74473L14.5336 8.36905L14.0258 8.74473C13.9547 8.7969 13.8734 8.72386 13.8937 8.65081L14.0867 8.03513L13.5789 7.64902C13.518 7.59684 13.5484 7.49249 13.6297 7.49249H14.2594L14.4625 6.87681C14.4625 6.80376 14.5742 6.80376 14.6047 6.87681Z" fill="#F5F5F5"/>
<path d="M14.6047 10.0804L14.8078 10.6961H15.4375C15.5187 10.6961 15.5492 10.8005 15.4883 10.8526L14.9805 11.2388L15.1734 11.8544C15.1937 11.9379 15.1125 12.0005 15.0414 11.9484L14.5336 11.5727L14.0258 11.9484C13.9547 12.0005 13.8734 11.9275 13.8937 11.8544L14.0867 11.2388L13.5789 10.8526C13.518 10.8005 13.5484 10.6961 13.6297 10.6961H14.2594L14.4625 10.0804C14.4625 9.99695 14.5742 9.99695 14.6047 10.0804Z" fill="#F5F5F5"/>
<path d="M14.6047 13.284L14.8078 13.8997H15.4375C15.5187 13.8997 15.5492 14.0041 15.4883 14.0563L14.9805 14.4424L15.1734 15.058C15.1937 15.1415 15.1125 15.2041 15.0414 15.152L14.5336 14.7763L14.0258 15.152C13.9547 15.2041 13.8734 15.1311 13.8937 15.058L14.0867 14.4424L13.5789 14.0563C13.518 14.0041 13.5484 13.8997 13.6297 13.8997H14.2594L14.4625 13.284C14.4625 13.2006 14.5742 13.2006 14.6047 13.284Z" fill="#F5F5F5"/>
<path d="M17.0117 2.11828L17.2148 2.73396H17.8445C17.9258 2.73396 17.9562 2.83831 17.8953 2.89049L17.3875 3.27659L17.5805 3.89228C17.6008 3.97576 17.5195 4.03837 17.4484 3.98619L16.9406 3.61052L16.4328 3.98619C16.3617 4.03837 16.2805 3.96532 16.3008 3.89228L16.4937 3.27659L15.9859 2.89049C15.925 2.83831 15.9555 2.73396 16.0367 2.73396H16.6664L16.8695 2.11828C16.8797 2.03479 16.9914 2.03479 17.0117 2.11828Z" fill="#F5F5F5"/>
<path d="M17.0117 5.3115L17.2148 5.92718H17.8445C17.9258 5.92718 17.9562 6.03153 17.8953 6.08371L17.3875 6.46982L17.5805 7.0855C17.6008 7.16898 17.5195 7.23159 17.4484 7.17942L16.9406 6.80375L16.4328 7.17942C16.3617 7.23159 16.2805 7.15855 16.3008 7.0855L16.4937 6.46982L15.9859 6.08371C15.925 6.03153 15.9555 5.92718 16.0367 5.92718H16.6664L16.8695 5.3115C16.8797 5.23845 16.9914 5.23845 17.0117 5.3115Z" fill="#F5F5F5"/>
<path d="M17.0117 8.51513L17.2148 9.13081H17.8445C17.9258 9.13081 17.9562 9.23516 17.8953 9.28734L17.3875 9.67344L17.5805 10.2891C17.6008 10.3726 17.5195 10.4352 17.4484 10.383L16.9406 10.0074L16.4328 10.383C16.3617 10.4352 16.2805 10.3622 16.3008 10.2891L16.4937 9.67344L15.9859 9.28734C15.925 9.23516 15.9555 9.13081 16.0367 9.13081H16.6664L16.8695 8.51513C16.8797 8.43164 16.9914 8.43164 17.0117 8.51513Z" fill="#F5F5F5"/>
<path d="M17.0117 11.7083L17.2148 12.324H17.8445C17.9258 12.324 17.9562 12.4284 17.8953 12.4806L17.3875 12.8667L17.5805 13.4824C17.6008 13.5658 17.5195 13.6284 17.4484 13.5763L16.9406 13.2006L16.4328 13.5763C16.3617 13.6284 16.2805 13.5554 16.3008 13.4824L16.4937 12.8667L15.9859 12.4806C15.925 12.4284 15.9555 12.324 16.0367 12.324H16.6664L16.8695 11.7083C16.8797 11.6353 16.9914 11.6353 17.0117 11.7083Z" fill="#F5F5F5"/>
<path d="M17.0117 14.912L17.2148 15.5277H17.8445C17.9258 15.5277 17.9562 15.632 17.8953 15.6842L17.3875 16.0703L17.5805 16.686C17.6008 16.7695 17.5195 16.8321 17.4484 16.7799L16.9406 16.4042L16.4328 16.7799C16.3617 16.8321 16.2805 16.759 16.3008 16.686L16.4937 16.0703L15.9859 15.6842C15.925 15.632 15.9555 15.5277 16.0367 15.5277H16.6664L16.8695 14.912C16.8797 14.8285 16.9914 14.8285 17.0117 14.912Z" fill="#F5F5F5"/>
<path d="M19.4289 3.68358L19.632 4.29927H20.2617C20.343 4.29927 20.3734 4.40362 20.3125 4.4558L19.8047 4.8419L19.9976 5.45758C20.018 5.54107 19.9367 5.60368 19.8656 5.5515L19.3578 5.17583L18.85 5.5515C18.7789 5.60368 18.6976 5.53063 18.718 5.45758L18.9109 4.8419L18.4031 4.4558C18.3422 4.40362 18.3726 4.29927 18.4539 4.29927H19.0836L19.2867 3.68358C19.2969 3.6001 19.4086 3.6001 19.4289 3.68358Z" fill="#F5F5F5"/>
<path d="M19.4289 6.87681L19.632 7.49249H20.2617C20.343 7.49249 20.3734 7.59684 20.3125 7.64902L19.8047 8.03513L19.9976 8.65081C20.018 8.73429 19.9367 8.7969 19.8656 8.74473L19.3578 8.36905L18.85 8.74473C18.7789 8.7969 18.6976 8.72386 18.718 8.65081L18.9109 8.03513L18.4031 7.64902C18.3422 7.59684 18.3726 7.49249 18.4539 7.49249H19.0836L19.2867 6.87681C19.2969 6.80376 19.4086 6.80376 19.4289 6.87681Z" fill="#F5F5F5"/>
<path d="M19.4289 10.0804L19.632 10.6961H20.2617C20.343 10.6961 20.3734 10.8005 20.3125 10.8526L19.8047 11.2388L19.9976 11.8544C20.018 11.9379 19.9367 12.0005 19.8656 11.9484L19.3578 11.5727L18.85 11.9484C18.7789 12.0005 18.6976 11.9275 18.718 11.8544L18.9109 11.2388L18.4031 10.8526C18.3422 10.8005 18.3726 10.6961 18.4539 10.6961H19.0836L19.2867 10.0804C19.2969 9.99695 19.4086 9.99695 19.4289 10.0804Z" fill="#F5F5F5"/>
<path d="M19.4289 13.284L19.632 13.8997H20.2617C20.343 13.8997 20.3734 14.0041 20.3125 14.0563L19.8047 14.4424L19.9976 15.058C20.018 15.1415 19.9367 15.2041 19.8656 15.152L19.3578 14.7763L18.85 15.152C18.7789 15.2041 18.6976 15.1311 18.718 15.058L18.9109 14.4424L18.4031 14.0563C18.3422 14.0041 18.3726 13.8997 18.4539 13.8997H19.0836L19.2867 13.284C19.2969 13.2006 19.4086 13.2006 19.4289 13.284Z" fill="#F5F5F5"/>
<path d="M21.8461 2.11828L22.0492 2.73396H22.6789C22.7601 2.73396 22.7906 2.83831 22.7297 2.89049L22.2219 3.27659L22.4148 3.89228C22.4351 3.97576 22.3539 4.03837 22.2828 3.98619L21.775 3.61052L21.2672 3.98619C21.1961 4.03837 21.1148 3.96532 21.1351 3.89228L21.3281 3.27659L20.8203 2.89049C20.7594 2.83831 20.7898 2.73396 20.8711 2.73396H21.5008L21.7039 2.11828C21.7141 2.03479 21.8258 2.03479 21.8461 2.11828Z" fill="#F5F5F5"/>
<path d="M21.8461 5.3115L22.0492 5.92718H22.6789C22.7601 5.92718 22.7906 6.03153 22.7297 6.08371L22.2219 6.46982L22.4148 7.0855C22.4351 7.16898 22.3539 7.23159 22.2828 7.17942L21.775 6.80375L21.2672 7.17942C21.1961 7.23159 21.1148 7.15855 21.1351 7.0855L21.3281 6.46982L20.8203 6.08371C20.7594 6.03153 20.7898 5.92718 20.8711 5.92718H21.5008L21.7039 5.3115C21.7141 5.23845 21.8258 5.23845 21.8461 5.3115Z" fill="#F5F5F5"/>
<path d="M21.8461 8.51513L22.0492 9.13081H22.6789C22.7601 9.13081 22.7906 9.23516 22.7297 9.28734L22.2219 9.67344L22.4148 10.2891C22.4351 10.3726 22.3539 10.4352 22.2828 10.383L21.775 10.0074L21.2672 10.383C21.1961 10.4352 21.1148 10.3622 21.1351 10.2891L21.3281 9.67344L20.8203 9.28734C20.7594 9.23516 20.7898 9.13081 20.8711 9.13081H21.5008L21.7039 8.51513C21.7141 8.43164 21.8258 8.43164 21.8461 8.51513Z" fill="#F5F5F5"/>
<path d="M21.8461 11.7083L22.0492 12.324H22.6789C22.7601 12.324 22.7906 12.4284 22.7297 12.4806L22.2219 12.8667L22.4148 13.4824C22.4351 13.5658 22.3539 13.6284 22.2828 13.5763L21.775 13.2006L21.2672 13.5763C21.1961 13.6284 21.1148 13.5554 21.1351 13.4824L21.3281 12.8667L20.8203 12.4806C20.7594 12.4284 20.7898 12.324 20.8711 12.324H21.5008L21.7039 11.7083C21.7141 11.6353 21.8258 11.6353 21.8461 11.7083Z" fill="#F5F5F5"/>
<path d="M21.8461 14.912L22.0492 15.5277H22.6789C22.7601 15.5277 22.7906 15.632 22.7297 15.6842L22.2219 16.0703L22.4148 16.686C22.4351 16.7695 22.3539 16.8321 22.2828 16.7799L21.775 16.4042L21.2672 16.7799C21.1961 16.8321 21.1148 16.759 21.1351 16.686L21.3281 16.0703L20.8203 15.6842C20.7594 15.632 20.7898 15.5277 20.8711 15.5277H21.5008L21.7039 14.912C21.7141 14.8285 21.8258 14.8285 21.8461 14.912Z" fill="#F5F5F5"/>
</svg>
