<svg width="146" height="20" viewBox="0 0 146 20" fill="none" xmlns="http://www.w3.org/2000/svg">
<path d="M36.308 15.216C38.126 15.216 39.782 14.442 40.97 13.2L39.386 11.724C38.612 12.606 37.514 13.164 36.308 13.164C34.022 13.164 32.096 11.184 32.096 8.808C32.096 6.45 34.022 4.47 36.308 4.47C37.496 4.47 38.612 5.028 39.368 5.91L40.97 4.416C39.782 3.192 38.126 2.418 36.308 2.418C32.78 2.418 29.81 5.334 29.81 8.808C29.81 12.282 32.78 15.216 36.308 15.216ZM44.2837 7.494V5.694H42.0877V15H44.2837V10.302C44.2837 8.538 45.6157 7.35 47.6137 7.35V5.478C46.0837 5.478 44.8777 6.252 44.2837 7.494ZM52.9788 13.272C51.6468 13.272 50.6748 12.372 50.4048 11.094H57.4248C57.4248 7.656 55.7508 5.478 52.8708 5.478C50.2248 5.478 48.1368 7.53 48.1368 10.32C48.1368 13.182 50.3328 15.216 52.9968 15.216C54.3468 15.216 55.9668 14.64 56.7768 13.776L55.3908 12.336C54.8688 12.876 53.8428 13.272 52.9788 13.272ZM52.9608 7.422C54.2748 7.422 55.0668 8.25 55.3188 9.42H50.4228C50.7468 8.196 51.7368 7.422 52.9608 7.422ZM62.7783 5.478C61.6083 5.478 60.3843 5.802 59.0703 6.45L59.8263 7.98C60.6183 7.584 61.4643 7.278 62.3463 7.278C64.0383 7.278 64.6323 8.322 64.6323 9.402V9.654C63.7863 9.33 62.8683 9.15 62.0223 9.15C59.9343 9.15 58.2243 10.41 58.2243 12.246C58.2243 14.046 59.7183 15.216 61.6983 15.216C62.7783 15.216 63.9483 14.748 64.6323 13.884V15H66.7743V9.402C66.7743 7.044 65.2443 5.478 62.7783 5.478ZM62.1843 13.614C61.1403 13.614 60.3663 13.056 60.3663 12.174C60.3663 11.292 61.2483 10.68 62.3463 10.68C63.1743 10.68 63.9483 10.806 64.6323 11.04V12.084C64.3803 13.074 63.2463 13.614 62.1843 13.614ZM73.1961 13.002C72.9981 13.2 72.6561 13.344 72.2781 13.344C71.7561 13.344 71.3601 12.894 71.3601 12.264V7.512H73.4661V5.694H71.3601V3.138H69.2181V5.694H67.8681V7.512H69.2181V12.534C69.2181 14.1 70.2981 15.216 71.8461 15.216C72.5481 15.216 73.3041 14.928 73.8261 14.478L73.1961 13.002ZM76.0466 4.29C76.7306 4.29 77.2886 3.696 77.2886 3.03C77.2886 2.364 76.7306 1.788 76.0466 1.788C75.3446 1.788 74.7866 2.364 74.7866 3.03C74.7866 3.696 75.3446 4.29 76.0466 4.29ZM74.9306 15H77.1266V5.694H74.9306V15ZM82.0677 15H84.1377L88.0797 5.694H85.7397L83.0937 12.462L80.3937 5.694H78.0717L82.0677 15ZM92.7463 13.272C91.4143 13.272 90.4423 12.372 90.1723 11.094H97.1923C97.1923 7.656 95.5183 5.478 92.6383 5.478C89.9923 5.478 87.9043 7.53 87.9043 10.32C87.9043 13.182 90.1003 15.216 92.7643 15.216C94.1143 15.216 95.7343 14.64 96.5443 13.776L95.1583 12.336C94.6363 12.876 93.6103 13.272 92.7463 13.272ZM92.7283 7.422C94.0423 7.422 94.8343 8.25 95.0863 9.42H90.1903C90.5143 8.196 91.5043 7.422 92.7283 7.422ZM109.095 15.216C110.913 15.216 112.569 14.442 113.757 13.2L112.173 11.724C111.399 12.606 110.301 13.164 109.095 13.164C106.809 13.164 104.883 11.184 104.883 8.808C104.883 6.45 106.809 4.47 109.095 4.47C110.283 4.47 111.399 5.028 112.155 5.91L113.757 4.416C112.569 3.192 110.913 2.418 109.095 2.418C105.567 2.418 102.597 5.334 102.597 8.808C102.597 12.282 105.567 15.216 109.095 15.216ZM119.321 15.216C122.021 15.216 124.307 12.984 124.307 10.338C124.307 7.692 122.021 5.478 119.321 5.478C116.621 5.478 114.335 7.692 114.335 10.338C114.335 12.984 116.621 15.216 119.321 15.216ZM119.321 13.344C117.773 13.344 116.477 11.976 116.477 10.338C116.477 8.718 117.773 7.35 119.321 7.35C120.851 7.35 122.147 8.718 122.147 10.338C122.147 11.976 120.851 13.344 119.321 13.344ZM132.686 2.418V7.134C131.948 6.09 130.832 5.478 129.464 5.478C126.998 5.478 125.198 7.494 125.198 10.338C125.198 13.2 126.998 15.216 129.464 15.216C130.832 15.216 131.948 14.604 132.686 13.56V15H134.882V2.418H132.686ZM130.058 13.344C128.492 13.344 127.376 12.084 127.376 10.338C127.376 8.592 128.492 7.35 130.058 7.35C131.606 7.35 132.686 8.592 132.686 10.338C132.686 12.084 131.606 13.344 130.058 13.344ZM141.092 13.272C139.76 13.272 138.788 12.372 138.518 11.094H145.538C145.538 7.656 143.864 5.478 140.984 5.478C138.338 5.478 136.25 7.53 136.25 10.32C136.25 13.182 138.446 15.216 141.11 15.216C142.46 15.216 144.08 14.64 144.89 13.776L143.504 12.336C142.982 12.876 141.956 13.272 141.092 13.272ZM141.074 7.422C142.388 7.422 143.18 8.25 143.432 9.42H138.536C138.86 8.196 139.85 7.422 141.074 7.422Z" fill="white"/>
<path fill-rule="evenodd" clip-rule="evenodd" d="M0.0356576 4.9782L0 14.9782L8.42945 20L16.8946 15.0291L16.9231 5.02907L8.49363 0L0.0356576 4.9782ZM1.68304 5.99564V13.9898L8.47224 17.9869L15.2686 13.9898V5.99564L8.47224 1.99855L1.68304 5.99564Z" fill="#EB4646"/>
<path d="M9.60106 8.99281L7.05659 10.4899L7.34185 10.9934L9.88632 9.4963L9.60106 8.99281Z" fill="#EB4646"/>
<path d="M8.47225 12.9942V13.9898L11.8669 11.9913V7.99417L11.0182 8.49562V11.4898L8.47225 12.9942Z" fill="#EB4646"/>
<path d="M8.47226 6.99853L5.92631 8.49562V11.4898L5.07766 11.9913V7.99417L8.47226 5.99562V6.99853Z" fill="#EB4646"/>
</svg>
