<svg width="18" height="12" viewBox="0 0 18 12" fill="none" xmlns="http://www.w3.org/2000/svg">
<path d="M16.6568 0H1.34675C0.604805 0 0 0.615385 0 1.3703V10.6297C0 11.3882 0.604805 12 1.34675 12H16.6532C17.3987 12 18 11.3846 18 10.6297V1.3703C18.0035 0.615385 17.3987 0 16.6568 0Z" fill="#F5F5F5"/>
<path d="M10.7248 3.37391C9.29714 2.4079 7.3702 2.80146 6.4208 4.25047C5.94258 4.97319 6.13949 5.95709 6.84979 6.4401C7.5636 6.9231 8.52355 6.72632 9.00177 6.00002C9.47647 5.27373 10.4399 5.08053 11.1537 5.55995C11.8676 6.04296 12.061 7.02686 11.5827 7.74958C12.5357 6.30056 12.1489 4.33992 10.7248 3.37391Z" fill="#FF4B55"/>
<path d="M6.42084 4.25049C5.94262 4.97321 6.13953 5.95711 6.84983 6.44011C7.56364 6.92312 8.52359 6.72634 9.00181 6.00004C9.47651 5.27374 10.44 5.08054 11.1538 5.55997C11.8676 6.04297 12.061 7.02687 11.5828 7.74959C10.6334 9.20219 8.70644 9.59217 7.28233 8.62616C5.85823 7.66015 5.47143 5.6995 6.42084 4.25049Z" fill="#41479B"/>
<path d="M12.3035 2.17887L12.8697 3.04113C12.9154 3.11269 12.8978 3.21286 12.8275 3.25938L12.6833 3.35598C12.613 3.40607 12.5145 3.3846 12.4688 3.31304L11.9027 2.45079C11.8535 2.37923 11.8746 2.27905 11.9449 2.23254L12.089 2.13594C12.1594 2.08585 12.2578 2.10732 12.3035 2.17887Z" fill="#464655"/>
<path d="M13.1756 3.5099L13.7417 4.37215C13.791 4.44371 13.7699 4.54389 13.6995 4.5904L13.5554 4.687C13.485 4.73351 13.3866 4.71562 13.3409 4.64407L12.7748 3.78181C12.7255 3.71025 12.7466 3.61008 12.817 3.56356L12.9611 3.46696C13.0314 3.41687 13.1264 3.43476 13.1756 3.5099Z" fill="#464655"/>
<path d="M12.9084 1.77101L14.3431 3.96421C14.3923 4.03576 14.3712 4.13594 14.3009 4.18245L14.1567 4.27906C14.0864 4.32914 13.9879 4.30768 13.9422 4.23612L12.5075 2.04292C12.4583 1.97136 12.4794 1.87118 12.5497 1.82467L12.6939 1.72807C12.7642 1.67798 12.8592 1.69587 12.9084 1.77101Z" fill="#464655"/>
<path d="M13.5096 1.35965L14.0757 2.2219C14.125 2.29346 14.1039 2.39364 14.0335 2.44015L13.8894 2.54033C13.819 2.58684 13.7206 2.56895 13.6749 2.49739L13.1087 1.63514C13.0595 1.56358 13.0806 1.4634 13.1509 1.41689L13.2951 1.32029C13.3654 1.26662 13.4639 1.28809 13.5096 1.35965Z" fill="#464655"/>
<path d="M14.3817 2.6941L14.9443 3.55636C14.9935 3.62791 14.9724 3.72809 14.9021 3.7746L14.758 3.8712C14.6876 3.92129 14.5892 3.89983 14.5435 3.82827L13.9808 2.96602C13.9351 2.89446 13.9527 2.79428 14.023 2.74777L14.1672 2.65117C14.2375 2.60108 14.3325 2.61897 14.3817 2.6941Z" fill="#464655"/>
<path d="M4.66609 7.35966L6.10075 9.54929C6.14997 9.62084 6.12888 9.72102 6.05855 9.76753L5.91438 9.86413C5.84406 9.91422 5.7456 9.89276 5.69989 9.8212L4.26523 7.63158C4.216 7.56002 4.2371 7.45984 4.30743 7.41333L4.4516 7.31673C4.52192 7.26664 4.62038 7.2881 4.66609 7.35966Z" fill="#464655"/>
<path d="M4.0649 7.77101L4.62751 8.62968C4.67673 8.70124 4.65564 8.80142 4.58531 8.84793L4.44114 8.94453C4.37081 8.99462 4.27236 8.97315 4.22665 8.9016L3.66404 8.04292C3.61481 7.97136 3.63591 7.87118 3.70623 7.82467L3.8504 7.72807C3.92073 7.67798 4.01567 7.69587 4.0649 7.77101Z" fill="#464655"/>
<path d="M4.93694 9.09842L5.49955 9.96067C5.54878 10.0322 5.52768 10.1324 5.45736 10.1789L5.31319 10.2755C5.24286 10.3256 5.1444 10.3041 5.09869 10.2326L4.53257 9.37391C4.48334 9.30235 4.50444 9.20217 4.57476 9.15566L4.71893 9.05906C4.79277 9.00539 4.88771 9.02686 4.93694 9.09842Z" fill="#464655"/>
<path d="M3.46004 8.17888L4.89469 10.3685C4.94392 10.4401 4.92282 10.5402 4.8525 10.5867L4.70833 10.6833C4.638 10.7334 4.53954 10.712 4.49383 10.6404L3.05918 8.45079C3.00995 8.37923 3.03105 8.27905 3.10137 8.23254L3.24554 8.13594C3.31587 8.08585 3.41433 8.10732 3.46004 8.17888Z" fill="#464655"/>
<path d="M4.26523 4.37208L5.69989 2.17887C5.74911 2.10732 5.84406 2.08585 5.91438 2.13594L6.05855 2.23254C6.12888 2.28263 6.14997 2.37923 6.10075 2.45079L4.66609 4.64041C4.61686 4.71197 4.52192 4.73344 4.4516 4.68335L4.30743 4.58675C4.2371 4.54023 4.216 4.44363 4.26523 4.37208Z" fill="#464655"/>
<path d="M3.66048 3.96066L5.09865 1.77104C5.14788 1.69948 5.24282 1.67801 5.31314 1.7281L5.45731 1.82471C5.52764 1.87479 5.54874 1.9714 5.49951 2.04295L4.06485 4.23615C4.01563 4.30771 3.92069 4.32918 3.85036 4.27909L3.70619 4.18249C3.63235 4.1324 3.61477 4.0358 3.66048 3.96066Z" fill="#464655"/>
<path d="M3.05918 3.55274L4.49383 1.35954C4.54306 1.28798 4.638 1.26652 4.70833 1.31661L4.8525 1.41321C4.92282 1.4633 4.94392 1.5599 4.89469 1.63145L3.46004 3.82823C3.41081 3.89979 3.31587 3.92126 3.24554 3.87117L3.10137 3.77457C3.03105 3.72448 3.00995 3.62788 3.05918 3.55274Z" fill="#464655"/>
<path d="M11.9027 9.54927L12.4653 8.69059C12.5145 8.61904 12.6095 8.59757 12.6798 8.64766L12.824 8.74426C12.8943 8.79435 12.9154 8.89095 12.8662 8.96251L12.3035 9.82118C12.2543 9.89274 12.1594 9.91421 12.089 9.86412L11.9449 9.76752C11.8746 9.72101 11.8535 9.62083 11.9027 9.54927Z" fill="#464655"/>
<path d="M12.7713 8.22549L13.3374 7.35966C13.3866 7.2881 13.4815 7.26664 13.5519 7.31673L13.696 7.41333C13.7664 7.46342 13.7875 7.56002 13.7382 7.63158L13.1721 8.49383C13.1229 8.56539 13.0279 8.58685 12.9576 8.53676L12.8134 8.44016C12.7431 8.39365 12.7255 8.29705 12.7713 8.22549Z" fill="#464655"/>
<path d="M12.504 9.96068L13.0701 9.09843C13.1193 9.02687 13.2143 9.00541 13.2846 9.0555L13.4288 9.1521C13.4991 9.20219 13.5202 9.29879 13.471 9.37034L12.9084 10.2326C12.8591 10.3042 12.7642 10.3256 12.6939 10.2755L12.5497 10.1789C12.4759 10.1324 12.4583 10.0358 12.504 9.96068Z" fill="#464655"/>
<path d="M13.3761 8.62971L13.9422 7.77104C13.9914 7.69948 14.0864 7.67801 14.1567 7.7281L14.3009 7.82471C14.3712 7.87479 14.3923 7.9714 14.3431 8.04295L13.7769 8.90163C13.7277 8.97318 13.6328 8.99465 13.5624 8.94456L13.4183 8.84796C13.3479 8.80145 13.3268 8.70127 13.3761 8.62971Z" fill="#464655"/>
<path d="M13.1087 10.3685L13.6749 9.50627C13.7241 9.43471 13.819 9.41324 13.8894 9.46333L14.0335 9.55994C14.1039 9.60645 14.125 9.70662 14.0757 9.77818L13.5096 10.6404C13.4604 10.712 13.3654 10.7335 13.2951 10.6834L13.1509 10.5868C13.0806 10.5403 13.0595 10.4401 13.1087 10.3685Z" fill="#464655"/>
<path d="M13.9808 9.04113L14.5434 8.17888C14.5926 8.10732 14.6876 8.08585 14.7579 8.13594L14.9021 8.23254C14.9724 8.28263 14.9935 8.37923 14.9443 8.45079L14.3817 9.31304C14.336 9.3846 14.2375 9.40607 14.1672 9.35598L14.023 9.25938C13.9527 9.21286 13.9316 9.11269 13.9808 9.04113Z" fill="#464655"/>
</svg>
