<svg width="14" height="14" viewBox="0 0 14 14" fill="none" xmlns="http://www.w3.org/2000/svg">
<path d="M10.9906 13V13.5H11.4906V13H10.9906ZM1 13H0.5V13.5H1V13ZM1 3.05634V2.55634H0.5V3.05634H1ZM13 1L13.4993 1.02627L13.5286 0.468709L12.9712 0.500828L13 1ZM10.4906 8.01408V13H11.4906V8.01408H10.4906ZM1 3.55634H5.98113V2.55634H1V3.55634ZM7.6514 1.80903L13.0288 1.49917L12.9712 0.500828L7.59388 0.810687L7.6514 1.80903ZM12.5007 0.973735L12.2177 6.35402L13.2163 6.40655L13.4993 1.02627L12.5007 0.973735ZM12.6473 0.645616L5.60011 7.6597L6.30555 8.36847L13.3527 1.35438L12.6473 0.645616ZM10.9906 12.5H1V13.5H10.9906V12.5ZM1.5 13V3.05634H0.5V13H1.5Z" fill="#7F7F7F"/>
</svg>
