<svg width="4" height="18" viewBox="0 0 4 18" fill="none" xmlns="http://www.w3.org/2000/svg">
<path d="M3.6 1.8C3.6 2.79411 2.79411 3.6 1.8 3.6C0.805887 3.6 0 2.79411 0 1.8C0 0.805887 0.805887 0 1.8 0C2.79411 0 3.6 0.805887 3.6 1.8Z" fill="white"/>
<path d="M3.6 9C3.6 9.99411 2.79411 10.8 1.8 10.8C0.805887 10.8 0 9.99411 0 9C0 8.00589 0.805887 7.2 1.8 7.2C2.79411 7.2 3.6 8.00589 3.6 9Z" fill="white"/>
<path d="M3.6 16.2C3.6 17.1941 2.79411 18 1.8 18C0.805887 18 0 17.1941 0 16.2C0 15.2059 0.805887 14.4 1.8 14.4C2.79411 14.4 3.6 15.2059 3.6 16.2Z" fill="white"/>
</svg>
