<svg width="18" height="18" viewBox="0 0 18 18" fill="none" xmlns="http://www.w3.org/2000/svg">
<path fill-rule="evenodd" clip-rule="evenodd" d="M9.59645 9.59667C10.9912 8.20194 10.9912 5.94064 9.59645 4.54591C8.20172 3.15118 5.94042 3.15118 4.54569 4.54591C3.15096 5.94064 3.15096 8.20194 4.54569 9.59667C5.94042 10.9914 8.20172 10.9914 9.59645 9.59667ZM10.6066 10.6068C12.5592 8.6542 12.5592 5.48838 10.6066 3.53576C8.65398 1.58313 5.48816 1.58313 3.53553 3.53576C1.58291 5.48838 1.58291 8.6542 3.53553 10.6068C5.48816 12.5594 8.65398 12.5594 10.6066 10.6068Z" fill="#2A2A2A"/>
<path d="M9.76481 10.7752L10.775 9.76503L14.4789 13.4689L13.4687 14.4791L9.76481 10.7752Z" fill="#2A2A2A"/>
</svg>
