<svg width="19" height="19" viewBox="0 0 19 19" fill="none" xmlns="http://www.w3.org/2000/svg">
<path d="M0 9.5C0 4.25435 4.25435 0 9.5 0C14.7457 0 19 4.25435 19 9.5C19 11.9193 18.0972 14.1261 16.6102 15.8019C14.8696 17.7609 12.3264 19 9.5 19C6.6736 19 4.13043 17.7609 2.38975 15.8019C0.902795 14.1261 0 11.9193 0 9.5Z" fill="#F3F3F3"/>
<path d="M12.2379 11.8131C13.1761 11.9842 14.0494 12.4445 14.728 13.1349C15.3888 13.8134 15.8314 14.6808 15.9848 15.6072C15.1941 16.451 14.2618 17.1178 13.2115 17.6016C12.0432 18.1386 10.7923 18.41 9.49412 18.41C8.19598 18.41 6.94505 18.1386 5.77673 17.6016C4.72642 17.1178 3.79412 16.451 3.00344 15.6072C3.15685 14.6867 3.5994 13.8134 4.26027 13.1349C4.93294 12.4445 5.81213 11.9783 6.75033 11.8131C7.57642 12.3088 8.52052 12.5684 9.48822 12.5684C10.4559 12.5684 11.4118 12.3088 12.2379 11.8131ZM12.114 11.1995C11.3646 11.6951 10.4618 11.9783 9.50002 11.9783C8.53822 11.9783 7.63542 11.6892 6.88604 11.1995C4.5258 11.5122 2.6494 13.424 2.38977 15.8019C4.13045 17.761 6.67362 19.0001 9.50002 19.0001C12.3264 19.0001 14.8696 17.7669 16.6103 15.8019C16.3506 13.424 14.4742 11.5122 12.114 11.1995Z" fill="#464646"/>
<path d="M9.50002 3.24534C11.6774 3.24534 13.4534 5.02142 13.4534 7.19875C13.4534 8.609 12.6982 9.91894 11.4767 10.6211L11.4354 10.6447C10.8454 10.9752 10.1786 11.1522 9.50002 11.1522C8.82145 11.1522 8.15468 10.9752 7.56462 10.6447L7.52921 10.627C6.30779 9.91894 5.54661 8.609 5.54661 7.19875C5.54661 5.02142 7.32269 3.24534 9.50002 3.24534ZM9.50002 2.65527C6.99226 2.65527 4.95654 4.69099 4.95654 7.19875C4.95654 8.89813 5.88884 10.3851 7.27549 11.1581C7.93046 11.5298 8.69164 11.7422 9.50002 11.7422C10.3084 11.7422 11.0696 11.5298 11.7246 11.1581C13.1112 10.3851 14.0435 8.89813 14.0435 7.19875C14.0435 4.69099 12.0078 2.65527 9.50002 2.65527Z" fill="#464646"/>
</svg>
