<svg width="22" height="18" viewBox="0 0 22 18" fill="none" xmlns="http://www.w3.org/2000/svg">
<path d="M21.2574 2.59551C21.2574 2.65108 21.2574 2.67887 21.2574 2.73443V2.59551ZM21.2574 2.59551C21.2007 1.37301 20.209 0.428345 18.9622 0.428345H4.76624C4.45455 0.428345 4.1712 0.539482 3.97285 0.761755C3.74617 0.956245 3.63283 1.26187 3.63283 1.53971V4.45705H3.12279C2.58442 4.45705 2.15939 4.87382 2.15939 5.40172V8.65247H0.714294V13.0702H2.15939V16.6265C2.15939 17.1544 2.58442 17.5712 3.12279 17.5712H18.9339C20.209 17.5712 21.2857 16.5432 21.2857 15.2651V2.73443C21.2574 2.67887 21.2574 2.6233 21.2574 2.59551ZM2.44275 12.709H1.11099V9.06923H2.44275H4.08619C5.10627 9.06923 5.89965 9.87498 5.89965 10.903C5.89965 11.9032 5.07793 12.7367 4.02952 12.7367H2.44275V12.709ZM20.6907 15.2929C20.6907 16.2653 19.8973 17.0433 18.9056 17.0433H3.12279C2.89611 17.0433 2.7261 16.8766 2.7261 16.6543V13.0702H4.02952C5.27628 13.0702 6.29635 12.0699 6.29635 10.8474C6.29635 9.59713 5.33295 8.62469 4.08619 8.62469H2.7261V5.40172C2.7261 5.17944 2.89611 5.01274 3.12279 5.01274H18.9339C19.6423 5.01274 20.2657 4.70711 20.719 4.207V15.2929H20.6907ZM18.9339 4.45705H4.19954V1.53971C4.19954 1.40079 4.25621 1.23409 4.36955 1.15073C4.45455 1.0396 4.59623 0.984029 4.76624 0.984029H18.9622C19.9256 0.984029 20.6907 1.76199 20.6907 2.73443C20.6907 3.6791 19.8973 4.45705 18.9339 4.45705ZM4.85125 10.8752C4.85125 11.2086 4.5679 11.4865 4.22787 11.4865C3.88785 11.4865 3.6045 11.2086 3.6045 10.8752C3.6045 10.5418 3.88785 10.264 4.22787 10.264C4.5679 10.264 4.85125 10.5418 4.85125 10.8752Z" fill="#2A2A2A" stroke="#2A2A2A" stroke-width="0.5"/>
</svg>
