<svg width="14" height="15" viewBox="0 0 14 15" fill="none" xmlns="http://www.w3.org/2000/svg">
<path d="M12.9172 2.15872H9.79812V1.64988C9.79812 0.740132 9.0584 0 8.14917 0H5.18416C4.27493 0 3.53521 0.740132 3.53521 1.64988V2.15872H0.416089C0.184928 2.15872 0 2.34375 0 2.57504C0 2.80633 0.184928 2.99137 0.416089 2.99137H1.16813V12.7734C1.16813 14.0008 2.16674 15 3.39343 15H9.9399C11.1666 15 12.1652 14.0008 12.1652 12.7734V2.99137H12.9172C13.1484 2.99137 13.3333 2.80633 13.3333 2.57504C13.3333 2.34375 13.1484 2.15872 12.9172 2.15872ZM4.36739 1.64988C4.36739 1.19963 4.73416 0.832648 5.18416 0.832648H8.14917C8.59917 0.832648 8.96594 1.19963 8.96594 1.64988V2.15872H4.36739V1.64988ZM11.333 12.7734C11.333 13.5413 10.7073 14.1674 9.9399 14.1674H3.39343C2.62598 14.1674 2.00031 13.5413 2.00031 12.7734V2.99137H11.3361V12.7734H11.333Z" fill="white"/>
<path d="M6.66667 12.6748C6.89783 12.6748 7.08276 12.4897 7.08276 12.2584V4.90028C7.08276 4.66899 6.89783 4.48396 6.66667 4.48396C6.43551 4.48396 6.25058 4.66899 6.25058 4.90028V12.2553C6.25058 12.4866 6.43551 12.6748 6.66667 12.6748Z" fill="white"/>
<path d="M3.9513 12.2153C4.18246 12.2153 4.36739 12.0302 4.36739 11.7989V5.35671C4.36739 5.12542 4.18246 4.94038 3.9513 4.94038C3.72014 4.94038 3.53521 5.12542 3.53521 5.35671V11.7989C3.53521 12.0302 3.72322 12.2153 3.9513 12.2153Z" fill="white"/>
<path d="M9.38203 12.2153C9.61319 12.2153 9.79811 12.0302 9.79811 11.7989V5.35671C9.79811 5.12542 9.61319 4.94038 9.38203 4.94038C9.15087 4.94038 8.96594 5.12542 8.96594 5.35671V11.7989C8.96594 12.0302 9.15087 12.2153 9.38203 12.2153Z" fill="white"/>
</svg>
