<svg width="16" height="15" viewBox="0 0 16 15" fill="none" xmlns="http://www.w3.org/2000/svg">
<mask id="path-1-inside-1" fill="white">
<path d="M13.0118 6.198L4.20982 15L0.438221 14.8444C0.296311 14.8928 0.156053 14.7525 0.204457 14.6106L0 11.0281C0.0246149 10.91 0.0726062 10.8152 0.167763 10.7201L8.85082 2.03699L13.0118 6.198Z"/>
<path d="M14.628 4.5818L13.391 5.81884L9.20663 1.63446L10.4437 0.397424C10.967 -0.125939 11.816 -0.133369 12.3303 0.380913L14.6446 2.69518C15.1588 3.20946 15.1514 4.05844 14.628 4.5818Z"/>
</mask>
<path d="M13.0118 6.198L13.7189 6.9051L14.426 6.198L13.7189 5.49089L13.0118 6.198ZM4.20982 15L4.16859 15.9991L4.6068 16.0172L4.91693 15.7071L4.20982 15ZM0.438221 14.8444L0.479452 13.8452L0.292494 13.8375L0.115395 13.8979L0.438221 14.8444ZM0.204457 14.6106L1.15091 14.9334L1.21396 14.7486L1.20283 14.5536L0.204457 14.6106ZM0 11.0281L-0.97897 10.8241L-1.0059 10.9533L-0.998375 11.0851L0 11.0281ZM0.167763 10.7201L0.87487 11.4272L0.167763 10.7201ZM8.85082 2.03699L9.55793 1.32989L8.85082 0.622781L8.14371 1.32989L8.85082 2.03699ZM13.391 5.81884L12.6839 6.52595L13.391 7.23305L14.0981 6.52595L13.391 5.81884ZM9.20663 1.63446L8.49952 0.927355L7.79241 1.63446L8.49952 2.34157L9.20663 1.63446ZM10.4437 0.397424L11.1508 1.10453V1.10453L10.4437 0.397424ZM12.3303 0.380913L11.6232 1.08802V1.08802L12.3303 0.380913ZM14.6446 2.69518L15.3517 1.98807L15.3517 1.98807L14.6446 2.69518ZM12.3047 5.49089L3.50271 14.2929L4.91693 15.7071L13.7189 6.9051L12.3047 5.49089ZM4.25105 14.0008L0.479452 13.8452L0.39699 15.8435L4.16859 15.9991L4.25105 14.0008ZM0.115395 13.8979C0.759491 13.6782 1.37061 14.2893 1.15091 14.9334L-0.742001 14.2878C-1.05851 15.2157 -0.166869 16.1073 0.761046 15.7908L0.115395 13.8979ZM1.20283 14.5536L0.998375 10.9711L-0.998375 11.0851L-0.793919 14.6676L1.20283 14.5536ZM0.97897 11.2321C0.975145 11.2504 0.96429 11.2903 0.93892 11.3377C0.913586 11.3849 0.887016 11.415 0.87487 11.4272L-0.539344 10.0129C-0.775719 10.2493 -0.915677 10.5203 -0.97897 10.8241L0.97897 11.2321ZM0.87487 11.4272L9.55793 2.7441L8.14371 1.32989L-0.539344 10.0129L0.87487 11.4272ZM8.14371 2.7441L12.3047 6.9051L13.7189 5.49089L9.55793 1.32989L8.14371 2.7441ZM13.9209 3.8747L12.6839 5.11173L14.0981 6.52595L15.3352 5.28891L13.9209 3.8747ZM14.0981 5.11173L9.91373 0.927355L8.49952 2.34157L12.6839 6.52595L14.0981 5.11173ZM9.91373 2.34157L11.1508 1.10453L9.73656 -0.309683L8.49952 0.927355L9.91373 2.34157ZM11.1508 1.10453C11.2953 0.959973 11.511 0.97588 11.6232 1.08802L13.0374 -0.326194C12.121 -1.24262 10.6387 -1.21185 9.73656 -0.309683L11.1508 1.10453ZM11.6232 1.08802L13.9374 3.40228L15.3517 1.98807L13.0374 -0.326194L11.6232 1.08802ZM13.9374 3.40228C14.0496 3.51442 14.0655 3.73014 13.9209 3.8747L15.3352 5.28891C16.2373 4.38674 16.2681 2.90449 15.3517 1.98807L13.9374 3.40228Z" fill="white" mask="url(#path-1-inside-1)"/>
</svg>
